<svg width="100" height="85" viewBox="0 0 100 85" fill="none" xmlns="http://www.w3.org/2000/svg">
<path d="M17.0049 15.7551C12.4272 23.262 13.0215 30.8888 13.652 38.9804C14.1116 44.8776 16.123 70.6781 31.3732 76.8999C37.7899 79.5178 48.0303 75.9945 68.2499 68.842C79.298 64.9333 83.8898 64.8592 88.8442 60.7841C94.9781 55.7385 102.17 45.97 99.3804 38.9801C96.8371 32.6076 88.6065 35.083 78.3078 27.6044C65.7305 18.4718 69.4839 8.59195 59.6287 2.9568C47.5181 -3.96745 25.5987 1.66135 17.0049 15.7551Z" fill="#E8F5FF"/>
<path d="M34.1584 71.7972C21.6595 64.0347 18.6566 51.1959 18.0839 48.4312C15.6617 36.7358 18.3269 19.862 31.6466 11.6421C41.2907 5.69023 53.5866 6.08641 61.7861 10.1506C65.0477 11.7673 65.87 13.0763 76.8559 22.5792C87.995 32.215 89.1449 31.5189 90.4188 34.0136C95.747 44.4498 86.4937 65.164 69.8236 73.2885C68.8315 73.7722 50.8452 82.1607 34.1584 71.7972Z" fill="#ECFFF2"/>
<path d="M77.3237 16.1307C76.1116 18.1685 81.6061 24.8005 84.0228 24.005C85.5242 23.5103 86.5615 19.908 84.8606 17.3735C82.8282 14.3454 78.1551 14.7327 77.3237 16.1307Z" fill="#FBF3DA"/>
<path d="M14.0649 11.8907C14.0649 12.5773 13.5028 13.1336 12.809 13.1336C12.1153 13.1336 11.5532 12.5773 11.5532 11.8907C11.5532 11.2041 12.1153 10.6478 12.809 10.6478C13.5027 10.6478 14.0649 11.2041 14.0649 11.8907Z" fill="#FAE3A6"/>
<path d="M18.084 68.3172C18.084 68.866 17.6339 69.3115 17.0794 69.3115C16.5248 69.3115 16.0747 68.866 16.0747 68.3172C16.0747 67.7683 16.5248 67.3229 17.0794 67.3229C17.6339 67.3229 18.084 67.7683 18.084 68.3172Z" fill="#FAE3A6"/>
<path d="M2.51163 47.1883C2.51164 47.8749 1.94954 48.4312 1.25582 48.4312C0.562111 48.4312 7.02194e-06 47.8749 4.52328e-06 47.1883C2.02462e-06 46.5017 0.562102 45.9454 1.25581 45.9454C1.94953 45.9454 2.51163 46.5017 2.51163 47.1883Z" fill="#FDF6E2"/>
<path d="M95.4419 62.8482C95.4419 63.397 94.9918 63.8425 94.4373 63.8425C93.8827 63.8425 93.4326 63.397 93.4326 62.8482C93.4326 62.2993 93.8827 61.8539 94.4373 61.8539C94.9918 61.8539 95.4419 62.2993 95.4419 62.8482Z" fill="#10A242"/>
<path d="M71.3297 6.42174C71.3297 6.83388 70.9922 7.16747 70.5762 7.16747C70.1603 7.16747 69.8228 6.83389 69.8228 6.42175C69.8228 6.00961 70.1603 5.67602 70.5762 5.67602C70.9922 5.67602 71.3297 6.00961 71.3297 6.42174Z" fill="#10A242"/>
<path d="M97.9534 17.1104C97.9534 17.3849 97.7288 17.6076 97.4511 17.6076C97.1733 17.6076 96.9487 17.3849 96.9487 17.1104C96.9487 16.836 97.1733 16.6133 97.4511 16.6133C97.7288 16.6133 97.9534 16.836 97.9534 17.1104Z" fill="#10A242"/>
<path d="M9.04165 28.7938C9.04165 29.206 8.70459 29.5395 8.28816 29.5395C7.87173 29.5395 7.53467 29.206 7.53467 28.7938C7.53467 28.3817 7.87173 28.0481 8.28816 28.0481C8.70458 28.0481 9.04165 28.3817 9.04165 28.7938Z" fill="#10A242"/>
<path d="M10.046 37.4938C10.046 38.592 9.1463 39.4824 8.03666 39.4824C6.92702 39.4824 6.02735 38.592 6.02735 37.4938C6.02735 36.3956 6.92701 35.5052 8.03665 35.5052C9.14628 35.5052 10.046 36.3956 10.046 37.4938Z" fill="#FBF3DA"/>
<path d="M76.3533 12.139C76.3533 12.9628 75.6787 13.6305 74.8463 13.6305C74.014 13.6305 73.3394 12.9628 73.3394 12.139C73.3394 11.3153 74.014 10.6476 74.8463 10.6476C75.6787 10.6476 76.3533 11.3152 76.3533 12.139Z" fill="#FBF3DA"/>
<path d="M7.42864 51.5935C7.95458 54.5351 11.3533 56.1041 12.256 55.4653C13.6309 54.4914 10.9861 47.1365 9.131 47.2166C8.10576 47.2608 7.06947 49.586 7.42864 51.5935Z" fill="#FBF3DA"/>
<path d="M63.8441 54.7014L63.844 85L56.0243 79.7594L56.0244 54.7014L63.8441 54.7014Z" fill="#EE4439"/>
<path d="M46.0141 54.7013L46.014 79.7593L38.1932 84.9998L38.1934 54.7013L46.0141 54.7013Z" fill="#EE4439"/>
<path d="M56.0241 54.7008L56.024 79.7593L51.019 76.4021L46.0141 79.7593L46.0142 54.7008L56.0241 54.7008Z" fill="#FFE4E4"/>
<path d="M57.202 7.40666L52.5683 8.89666C51.5716 9.22023 50.4914 9.22023 49.4902 8.90109L44.8609 7.41456C42.8088 6.75562 40.563 7.47997 39.2925 9.20797L36.4335 13.1061C35.8174 13.9494 34.9444 14.5759 33.9472 14.8995L29.3134 16.3939C27.2658 17.0528 25.8756 18.9451 25.8756 21.0822L25.8801 25.9013C25.8801 26.9414 25.5487 27.9563 24.9326 28.8002L22.0736 32.6983C20.8036 34.4263 20.8076 36.768 22.0776 38.4915L24.9411 42.3896C25.5612 43.2334 25.8926 44.2445 25.8926 45.2884L25.8966 50.1036C25.901 52.2407 27.2908 54.133 29.3428 54.7914L33.9726 56.278C34.9738 56.5971 35.8463 57.2236 36.4669 58.0674L39.3299 61.9616C40.5999 63.6891 42.8462 64.4095 44.8983 63.751L49.5276 62.2561C50.5288 61.9365 51.605 61.932 52.6062 62.2561L57.239 63.7421C59.2915 64.4016 61.5378 63.6762 62.8039 61.9487L65.6623 58.0467C66.2829 57.2034 67.1519 56.5769 68.1531 56.2533L72.7824 54.7628C74.8345 54.0994 76.2247 52.2082 76.2202 50.071L76.2162 45.2514C76.2162 44.2114 76.5511 43.1959 77.1677 42.357L80.0262 38.4545C81.2922 36.727 81.2922 34.3887 80.0227 32.6607L77.1598 28.7632C76.5392 27.9237 76.2038 26.9083 76.2038 25.8683L76.1998 21.0491C76.1998 18.9115 74.8095 17.0203 72.7575 16.3653L68.1237 14.8787C67.1225 14.5551 66.254 13.9287 65.6334 13.0897L62.7704 9.19168C61.8155 7.89249 60.306 7.16274 58.7448 7.16274C58.2301 7.16275 57.7098 7.24192 57.202 7.40666Z" fill="url(#paint0_linear_1_432)"/>
<path d="M30.3145 35.9446C30.3145 46.9381 39.3585 55.8884 50.4665 55.8883C61.5749 55.8883 70.6184 46.938 70.6184 35.9445C70.6183 24.951 61.5748 16.0008 50.4664 16.0008C39.3584 16.0008 30.3145 24.9511 30.3145 35.9446Z" fill="url(#paint1_linear_1_432)"/>
<path d="M50.4665 14.6534C38.5829 14.6534 28.9536 24.1835 28.9537 35.9446C28.9537 47.7062 38.583 57.2357 50.4666 57.2357C62.3501 57.2357 71.9794 47.7061 71.9794 35.9445C71.9793 24.1834 62.35 14.6534 50.4665 14.6534ZM50.4666 55.1502C39.77 55.1502 31.0609 46.5314 31.0609 35.9446C31.0609 25.3583 39.7699 16.7394 50.4665 16.7394C61.1635 16.7393 69.8721 25.3582 69.8721 35.9445C69.8722 46.5313 61.1636 55.1502 50.4666 55.1502Z" fill="white"/>
<path d="M50.4666 13.8347C38.1259 13.8347 28.1265 23.7306 28.1265 35.9441C28.1266 48.1581 38.126 58.0545 50.4667 58.0545C62.8074 58.0545 72.8068 48.158 72.8068 35.944C72.8068 23.7305 62.8073 13.8346 50.4666 13.8347ZM50.4667 55.8883C39.3587 55.8884 30.3148 46.9381 30.3147 35.9441C30.3147 24.9506 39.3586 16.0008 50.4666 16.0008C61.5751 16.0008 70.6186 24.9505 70.6186 35.944C70.6186 46.938 61.5752 55.8883 50.4667 55.8883Z" fill="#0B662A"/>
<path d="M63.2187 33.0576L45.3951 47.3916C44.7173 47.9369 43.7221 47.842 43.1621 47.1787L36.76 39.593C35.9586 38.6434 36.0872 37.2306 37.0472 36.4389C38.0066 35.6482 39.4327 35.777 40.2316 36.7271L43.7604 40.9212C44.3198 41.5865 45.3156 41.6829 45.9943 41.1366L60.3642 29.581C61.3341 28.8011 62.7591 28.9471 63.5471 29.907C64.3357 30.8669 64.1886 32.2777 63.2187 33.0576Z" fill="#17AC4A"/>
<path d="M63.2187 31.4196L45.3951 45.7535C44.7173 46.2989 43.7221 46.204 43.1621 45.5406L36.76 37.9549C35.9586 37.0053 36.0872 35.5925 37.0472 34.8008C38.0066 34.0101 39.4327 34.1389 40.2316 35.089L43.7604 39.2831C44.3198 39.9484 45.3156 40.0448 45.9943 39.4985L60.3642 27.9429C61.3341 27.163 62.7591 27.3091 63.5471 28.2689C64.3357 29.2288 64.1886 30.6397 63.2187 31.4196Z" fill="white"/>
<defs>
<linearGradient id="paint0_linear_1_432" x1="50.1605" y1="10.5017" x2="50.9256" y2="60.1684" gradientUnits="userSpaceOnUse">
<stop stop-color="#3EEA79"/>
<stop offset="0.48" stop-color="#27D763"/>
<stop offset="1" stop-color="#10A242"/>
</linearGradient>
<linearGradient id="paint1_linear_1_432" x1="50.5141" y1="15.2912" x2="51.0359" y2="56.3522" gradientUnits="userSpaceOnUse">
<stop stop-color="#23BD59"/>
<stop offset="0.48" stop-color="#128339"/>
<stop offset="1" stop-color="#065622"/>
</linearGradient>
</defs>
</svg>
